<svg width="20" height="21" viewBox="0 0 20 21" fill="none" xmlns="http://www.w3.org/2000/svg">
<path d="M2.29199 9.0083H5.07533V10.8833C5.07533 11.1419 5.17805 11.3899 5.3609 11.5727C5.54374 11.7556 5.79174 11.8583 6.05033 11.8583H8.00033C8.25891 11.8583 8.50691 11.7556 8.68975 11.5727C8.8726 11.3899 8.97533 11.1419 8.97533 10.8833V9.0083H17.7087C17.7087 11.0416 17.7087 12.7 16.5087 13.8916C16.4287 13.9688 16.3356 14.0309 16.2337 14.075C15.701 14.2949 15.1399 14.438 14.567 14.5C11.5232 14.8792 8.44412 14.8792 5.40033 14.5C4.82638 14.4339 4.26502 14.2851 3.73366 14.0583C3.63826 14.015 3.55091 13.9558 3.47533 13.8833C2.30866 12.6833 2.29199 11.0416 2.29199 9.0083Z" stroke="#443F6D" stroke-linecap="round" stroke-linejoin="round"/>
<path d="M3.33324 16.1333C3.3266 15.4246 3.46263 14.7217 3.73324 14.0667" stroke="#443F6D" stroke-linecap="round" stroke-linejoin="round"/>
<path d="M14.5752 14.4999C15.1481 14.4379 15.7092 14.2948 16.2419 14.075C16.521 14.7253 16.6656 15.4255 16.6669 16.1333" stroke="#443F6D" stroke-linecap="round" stroke-linejoin="round"/>
<path d="M1.25 9.0083H2.29167M17.7083 9.0083H18.75" stroke="#443F6D" stroke-linecap="round" stroke-linejoin="round"/>
<path d="M16.3669 9.00831V6.13331C16.341 5.81404 16.1959 5.5162 15.9604 5.29904C15.7249 5.08187 15.4164 4.9613 15.096 4.9613C14.7757 4.9613 14.4671 5.08187 14.2316 5.29904C13.9962 5.5162 13.8511 5.81404 13.8252 6.13331" stroke="#443F6D" stroke-linecap="round" stroke-linejoin="round"/>
<path d="M8.9752 10.8833C8.9752 11.1419 8.87247 11.3899 8.68962 11.5728C8.50678 11.7556 8.25878 11.8583 8.0002 11.8583H6.0502C5.79161 11.8583 5.54361 11.7556 5.36077 11.5728C5.17792 11.3899 5.0752 11.1419 5.0752 10.8833V8.6C5.0752 8.34141 5.17792 8.09342 5.36077 7.91057C5.54361 7.72772 5.79161 7.625 6.0502 7.625H8.0002C8.25811 7.62718 8.50484 7.7306 8.68722 7.91298C8.8696 8.09535 8.97302 8.34209 8.9752 8.6V10.8833Z" stroke="#443F6D" stroke-linecap="round" stroke-linejoin="round"/>
</svg>
