<svg width="20" height="21" viewBox="0 0 20 21" fill="none" xmlns="http://www.w3.org/2000/svg">
<path d="M5.62435 3.83331H14.3743C15.5931 3.83331 16.5897 4.78473 16.6618 5.98538L16.666 6.12498L16.6665 8.91973C17.58 9.17831 18.2616 9.98931 18.3274 10.969L18.3327 11.125V17.375C18.3327 17.7201 18.0528 18 17.7077 18C17.3913 18 17.1298 17.7648 17.0883 17.4598L17.0827 17.375V15.5H2.91602V17.375C2.91602 17.6914 2.68089 17.9529 2.37582 17.9943L2.29102 18C1.9746 18 1.71311 17.7648 1.67172 17.4598L1.66602 17.375V11.125C1.66602 10.0759 2.37098 9.1914 3.33305 8.91948L3.33268 6.12498C3.33268 4.9062 4.2841 3.90965 5.48475 3.8375L5.62435 3.83331ZM16.041 10.0833H3.95768C3.41834 10.0833 2.97474 10.4932 2.92139 11.0185L2.91602 11.125V14.25H17.0827V11.125C17.0827 10.5856 16.6728 10.1421 16.1475 10.0887L16.041 10.0833ZM14.3743 5.08331H5.62435C5.08501 5.08331 4.64141 5.4932 4.58806 6.01847L4.58268 6.12498V8.83331H5.83268C5.83268 8.37308 6.20578 7.99998 6.66602 7.99998H8.33268C8.76002 7.99998 9.11227 8.32168 9.16043 8.73613L9.16602 8.83331H10.8327C10.8327 8.37308 11.2058 7.99998 11.666 7.99998H13.3327C13.76 7.99998 14.1123 8.32168 14.1604 8.73613L14.166 8.83331H15.416V6.12498C15.416 5.58564 15.0061 5.14204 14.4808 5.08869L14.3743 5.08331Z" fill="#443F6D"/>
</svg>
