<svg width="20" height="21" viewBox="0 0 20 21" fill="none" xmlns="http://www.w3.org/2000/svg">
<path d="M15.7505 9.06665H2.88379C2.95879 7.70832 3.26712 5.93332 4.25046 5.54999C7.55432 4.55064 11.0799 4.55064 14.3838 5.54999C15.3338 5.91665 15.6505 7.74999 15.7505 9.06665Z" stroke="#443F6D" stroke-linecap="round" stroke-linejoin="round"/>
<path d="M16.7752 9.06665C17.2997 9.20005 17.7708 9.49086 18.1252 9.89998C19.5335 11.3333 18.1252 13.5917 18.1252 13.5917H16.0668C15.9648 13.1025 15.6974 12.6633 15.3096 12.3481C14.9219 12.0329 14.4374 11.8608 13.9377 11.8608C13.4379 11.8608 12.9535 12.0329 12.5657 12.3481C12.1779 12.6633 11.9105 13.1025 11.8085 13.5917H7.30849C7.20645 13.1025 6.93906 12.6633 6.55129 12.3481C6.16353 12.0329 5.67905 11.8608 5.17933 11.8608C4.6796 11.8608 4.19512 12.0329 3.80736 12.3481C3.4196 12.6633 3.15221 13.1025 3.05016 13.5917H1.29183C1.29183 13.5917 0.87516 9.66665 2.64183 9.06665H16.7752Z" stroke="#443F6D" stroke-linecap="round" stroke-linejoin="round"/>
<path d="M8.86719 9.06665V4.79999" stroke="#443F6D" stroke-linecap="round" stroke-linejoin="round"/>
<path d="M7.30807 13.5917C7.33454 13.7346 7.34848 13.8796 7.34974 14.025C7.36811 14.3214 7.3256 14.6184 7.22481 14.8978C7.12403 15.1771 6.96711 15.4328 6.76373 15.6492C6.56034 15.8656 6.3148 16.038 6.04224 16.1559C5.76968 16.2738 5.47587 16.3346 5.17891 16.3346C4.88195 16.3346 4.58813 16.2738 4.31557 16.1559C4.04301 16.038 3.79747 15.8656 3.59409 15.6492C3.3907 15.4328 3.23379 15.1771 3.133 14.8978C3.03222 14.6184 2.9897 14.3214 3.00807 14.025C3.00501 13.8794 3.019 13.734 3.04974 13.5917C3.15179 13.1025 3.41918 12.6634 3.80694 12.3481C4.1947 12.0329 4.67918 11.8608 5.17891 11.8608C5.67863 11.8608 6.16311 12.0329 6.55087 12.3481C6.93864 12.6634 7.20603 13.1025 7.30807 13.5917Z" stroke="#443F6D" stroke-linecap="round" stroke-linejoin="round"/>
<path d="M16.0665 13.5917C16.0834 13.7356 16.0834 13.8811 16.0665 14.025C16.0849 14.3214 16.0424 14.6184 15.9416 14.8978C15.8408 15.1771 15.6839 15.4328 15.4805 15.6492C15.2771 15.8656 15.0316 16.038 14.759 16.1559C14.4865 16.2738 14.1927 16.3346 13.8957 16.3346C13.5987 16.3346 13.3049 16.2738 13.0324 16.1559C12.7598 16.038 12.5143 15.8656 12.3109 15.6492C12.1075 15.4328 11.9506 15.1771 11.8498 14.8978C11.749 14.6184 11.7065 14.3214 11.7249 14.025C11.7261 13.8796 11.7401 13.7346 11.7665 13.5917C11.8686 13.1025 12.136 12.6634 12.5237 12.3481C12.9115 12.0329 13.396 11.8608 13.8957 11.8608C14.3954 11.8608 14.8799 12.0329 15.2677 12.3481C15.6554 12.6634 15.9228 13.1025 16.0249 13.5917H16.0665Z" stroke="#443F6D" stroke-linecap="round" stroke-linejoin="round"/>
</svg>
