<svg width="25" height="25" viewBox="0 0 25 25" fill="none" xmlns="http://www.w3.org/2000/svg">
<g clip-path="url(#clip0_428_2810)">
<path d="M12.5 0C5.5957 0 0 5.5957 0 12.5C0 19.4043 5.5957 25 12.5 25C19.4043 25 25 19.4043 25 12.5C25 5.5957 19.4043 0 12.5 0ZM15.2588 10.3809L15.1172 12.251H13.1982V18.7451H10.7764V12.251H9.48242V10.3809H10.7764V9.12598C10.7764 8.57422 10.791 7.71973 11.1914 7.1875C11.6162 6.62598 12.1973 6.24512 13.1982 6.24512C14.8291 6.24512 15.5127 6.47949 15.5127 6.47949L15.1904 8.39355C15.1904 8.39355 14.6533 8.23731 14.1504 8.23731C13.6475 8.23731 13.1982 8.41797 13.1982 8.9209V10.3809H15.2588Z" fill="#EF2BA0"/>
</g>
<defs>
<clipPath id="clip0_428_2810">
<rect width="25" height="25" fill="white"/>
</clipPath>
</defs>
</svg>
