<svg width="18" height="17" viewBox="0 0 18 17" fill="none" xmlns="http://www.w3.org/2000/svg">
<path fill-rule="evenodd" clip-rule="evenodd" d="M16.9428 7.65475L16.2915 7.13375V15.7083H17.3332C17.6783 15.7083 17.9582 15.9882 17.9582 16.3333C17.9582 16.6786 17.6783 16.9583 17.3332 16.9583H0.666528C0.321344 16.9583 0.0415277 16.6786 0.0415277 16.3333C0.0415277 15.9882 0.321344 15.7083 0.666528 15.7083H1.70819V7.13375L1.05696 7.65475C0.787419 7.87042 0.394111 7.82667 0.178486 7.55717C-0.0371474 7.28759 0.00655264 6.89425 0.276094 6.67867L7.04769 1.26139C8.189 0.348337 9.81075 0.348337 10.952 1.26139L17.7236 6.67867C17.9932 6.89425 18.0368 7.28759 17.8213 7.55717C17.6056 7.82667 17.2123 7.87042 16.9428 7.65475ZM8.99984 3.62504C7.73417 3.62504 6.70819 4.65105 6.70819 5.9167C6.70819 7.18234 7.73417 8.20834 8.99984 8.20834C10.2655 8.20834 11.2915 7.18234 11.2915 5.9167C11.2915 4.65105 10.2655 3.62504 8.99984 3.62504ZM10.4548 9.093C10.0724 9.04167 9.59509 9.04167 9.041 9.04167H8.95875C8.40467 9.04167 7.92725 9.04167 7.545 9.093C7.13529 9.14809 6.74257 9.27234 6.42404 9.59092C6.10549 9.90942 5.98128 10.3022 5.92619 10.7118C5.8748 11.0941 5.87483 11.5715 5.87486 12.1256V15.7083H7.12486H10.8748H12.1248V12.1256V12.0226C12.1247 11.5122 12.1217 11.0703 12.0735 10.7118C12.0184 10.3022 11.8943 9.90942 11.5757 9.59092C11.2572 9.27234 10.8644 9.14809 10.4548 9.093Z" fill="#1C274C"/>
</svg>
