<svg width="56" height="65" viewBox="0 0 56 65" fill="none" xmlns="http://www.w3.org/2000/svg">
<path d="M27.611 7.15814C25.3706 5.27116 22.0946 5.27116 19.8541 7.15812L1.80554 22.3591C0.449966 23.5009 -0.332275 25.1816 -0.332275 26.9526V51.815C-0.332275 54.396 1.7627 56.4884 4.347 56.4884H13.7056C16.2899 56.4884 18.3848 54.396 18.3848 51.815V38.4433C18.3848 38.0748 18.684 37.7757 19.0533 37.7757H28.4119C28.7811 37.7757 29.0803 38.0748 29.0803 38.4433V47.5058C30.19 46.5836 31.5737 45.979 33.0911 45.8311V43.9366C32.2425 42.5298 31.7542 40.8815 31.7542 39.1195C31.7542 37.9829 31.9574 36.8938 32.3291 35.8862C31.4935 34.6119 30.0512 33.7698 28.4119 33.7698H19.0533C16.469 33.7698 14.374 35.8622 14.374 38.4433V51.815C14.374 52.1838 14.0747 52.4826 13.7056 52.4826H4.347C3.97782 52.4826 3.67853 52.1838 3.67853 51.815V26.9526C3.67853 26.3623 3.93929 25.802 4.39115 25.4215L22.4398 10.2205C23.1866 9.59146 24.2786 9.59146 25.0254 10.2205L43.0741 25.4215C43.5259 25.802 43.7866 26.3623 43.7866 26.9526V30.1595C45.3273 30.6175 46.7014 31.4609 47.7975 32.578V26.9526C47.7975 25.1816 47.0151 23.5009 45.6597 22.3591L27.611 7.15814ZM47.7975 39.1195C47.7975 42.8067 44.8046 45.7958 41.1128 45.7958C37.4209 45.7958 34.4281 42.8067 34.4281 39.1195C34.4281 35.4322 37.4209 32.4431 41.1128 32.4431C44.8046 32.4431 47.7975 35.4322 47.7975 39.1195ZM53.1452 53.4736C53.1452 57.6303 49.7074 61.8191 41.1128 61.8191C32.5181 61.8191 29.0803 57.6461 29.0803 53.4736V53.1986C29.0803 50.5838 31.2026 48.4664 33.8203 48.4664H48.4052C51.0229 48.4664 53.1452 50.5841 53.1452 53.1986V53.4736Z" fill="url(#paint0_linear_565_3467)"/>
<defs>
<linearGradient id="paint0_linear_565_3467" x1="26.4065" y1="5.7429" x2="26.4065" y2="61.8191" gradientUnits="userSpaceOnUse">
<stop stop-color="#4F74F0"/>
<stop offset="1" stop-color="#EF2BA0"/>
</linearGradient>
</defs>
</svg>
