<svg width="18" height="18" viewBox="0 0 18 18" fill="none" xmlns="http://www.w3.org/2000/svg">
<path d="M12 4.5V5.25H12.5625C13.9087 5.25 15 6.3413 15 7.6875V13.3125C15 14.6587 13.9087 15.75 12.5625 15.75H5.4375C4.0913 15.75 3 14.6587 3 13.3125V7.6875C3 6.3413 4.0913 5.25 5.4375 5.25H6V4.5C6 2.84315 7.34314 1.5 9 1.5C10.6568 1.5 12 2.84315 12 4.5ZM7.125 4.5V5.25H10.875V4.5C10.875 3.46447 10.0355 2.625 9 2.625C7.96447 2.625 7.125 3.46447 7.125 4.5ZM9 11.625C9.6213 11.625 10.125 11.1213 10.125 10.5C10.125 9.8787 9.6213 9.375 9 9.375C8.3787 9.375 7.875 9.8787 7.875 10.5C7.875 11.1213 8.3787 11.625 9 11.625Z" fill="#212121"/>
</svg>
