<svg xmlns="http://www.w3.org/2000/svg" viewBox="0 0 32 32"><defs/><g fill="none" fill-rule="evenodd"><g transform="translate(5 1)"><ellipse cx="11" cy="28" fill="#53627C" opacity=".4" rx="8" ry="2"/><path fill="#0c2c61" stroke="#5932B3" d="M15.4896776,22.8801285 L15.6708236,22.7585155 C20.0534262,21.0521672 23,16.8206717 23,12.0380504 L23,11.5 C23,5.14872538 17.8512746,0 11.5,0 C5.14872538,0 0,5.14872538 0,11.5 L0,12.0380504 C0,17.3267184 3.60031394,21.8966627 8.65356567,23.1831868 L8.94456675,23.2572738 L10.0237103,27.6703837 C10.04336,27.7507405 10.0856999,27.823753 10.145684,27.8807199 C10.318442,28.044788 10.5914934,28.0377435 10.7555615,27.8649856 L15.4896776,22.8801285 Z M11.5,17 C8.46243388,17 6,14.5375661 6,11.5 C6,8.46243388 8.46243388,6 11.5,6 C14.5375661,6 17,8.46243388 17,11.5 C17,14.5375661 14.5375661,17 11.5,17 Z"/></g><circle cx="16.5" cy="12.5" r="5.5" fill="#FFF"/></g></svg>