<svg width="20" height="15" viewBox="0 0 20 15" fill="none" xmlns="http://www.w3.org/2000/svg">
<path d="M3 1.5C3 0.94772 3.44772 0.5 4 0.5H19C19.5523 0.5 20 0.94772 20 1.5C20 2.05228 19.5523 2.5 19 2.5H4C3.44772 2.5 3 2.05228 3 1.5ZM7 13.5C7 12.9477 7.44772 12.5 8 12.5H19C19.5523 12.5 20 12.9477 20 13.5C20 14.0523 19.5523 14.5 19 14.5H8C7.44772 14.5 7 14.0523 7 13.5ZM1 6.5C0.44772 6.5 0 6.9477 0 7.5C0 8.0523 0.44772 8.5 1 8.5H19C19.5523 8.5 20 8.0523 20 7.5C20 6.9477 19.5523 6.5 19 6.5H1Z" fill="#212121"/>
</svg>
