<svg width="60" height="60" viewBox="0 0 60 60" fill="none" xmlns="http://www.w3.org/2000/svg">
<path d="M0 0H30C46.5685 0 60 13.4315 60 30C60 46.5685 46.5685 60 30 60C13.4315 60 0 46.5685 0 30V0Z" fill="#EF2BA0"/>
<path d="M33.0883 24.4123C33.016 24.3189 32.9377 24.2298 32.8539 24.1457C32.5417 23.8326 32.1606 23.5967 31.741 23.4568L30.3632 23.0094C30.257 22.972 30.165 22.9025 30.1 22.8107C30.0349 22.7188 30 22.6091 30 22.4966C30 22.384 30.0349 22.2743 30.1 22.1824C30.165 22.0906 30.257 22.0212 30.3632 21.9837L31.741 21.5363C32.1547 21.3935 32.5299 21.1571 32.837 20.8454C33.1357 20.5422 33.3623 20.176 33.5 19.7737L33.5114 19.7396L33.9592 18.3629C33.9967 18.2568 34.0662 18.1649 34.1581 18.0999C34.25 18.0349 34.3598 18 34.4724 18C34.5851 18 34.6949 18.0349 34.7868 18.0999C34.8787 18.1649 34.9482 18.2568 34.9857 18.3629L35.4335 19.7396C35.5727 20.1582 35.8077 20.5385 36.1198 20.8504C36.432 21.1623 36.8126 21.3972 37.2315 21.5363L38.6093 21.9837L38.6368 21.9906C38.743 22.028 38.835 22.0975 38.9 22.1893C38.9651 22.2812 39 22.3909 39 22.5034C39 22.616 38.9651 22.7257 38.9 22.8176C38.835 22.9094 38.743 22.9788 38.6368 23.0163L37.259 23.4637C36.8402 23.6028 36.4595 23.8377 36.1474 24.1496C35.8353 24.4615 35.6003 24.8418 35.461 25.2604L35.0132 26.6371C35.0092 26.6486 35.0048 26.6598 35 26.6709C34.9605 26.7627 34.8964 26.8421 34.8144 26.9001C34.7224 26.9651 34.6126 27 34.5 27C34.3874 27 34.2776 26.9651 34.1856 26.9001C34.0937 26.8351 34.0242 26.7432 33.9868 26.6371L33.539 25.2604C33.4378 24.9533 33.2851 24.6666 33.0883 24.4123ZM40.7829 28.2132L40.0175 27.9646C39.7848 27.8873 39.5733 27.7568 39.3999 27.5836C39.2265 27.4103 39.0959 27.199 39.0186 26.9665L38.7698 26.2016C38.749 26.1427 38.7104 26.0916 38.6593 26.0555C38.6083 26.0194 38.5473 26 38.4847 26C38.4221 26 38.3611 26.0194 38.31 26.0555C38.259 26.0916 38.2204 26.1427 38.1996 26.2016L37.9508 26.9665C37.875 27.1974 37.7467 27.4076 37.5761 27.5808C37.4055 27.7539 37.1971 27.8853 36.9672 27.9646L36.2018 28.2132C36.1428 28.234 36.0917 28.2725 36.0555 28.3236C36.0194 28.3746 36 28.4356 36 28.4981C36 28.5606 36.0194 28.6216 36.0555 28.6726C36.0917 28.7236 36.1428 28.7622 36.2018 28.783L36.9672 29.0316C37.2003 29.1093 37.412 29.2403 37.5855 29.4143C37.7589 29.5882 37.8893 29.8003 37.9661 30.0335L38.2149 30.7984C38.2357 30.8573 38.2743 30.9084 38.3254 30.9445C38.3764 30.9806 38.4374 31 38.5 31C38.5626 31 38.6236 30.9806 38.6746 30.9445C38.7257 30.9084 38.7643 30.8573 38.7851 30.7984L39.0339 30.0335C39.1113 29.801 39.2418 29.5897 39.4152 29.4164C39.5886 29.2432 39.8001 29.1127 40.0328 29.0354L40.7982 28.7868C40.8572 28.766 40.9083 28.7275 40.9445 28.6764C40.9806 28.6254 41 28.5644 41 28.5019C41 28.4394 40.9806 28.3784 40.9445 28.3274C40.9083 28.2764 40.8572 28.2378 40.7982 28.217L40.7829 28.2132ZM28 21C28.5733 21 29.1305 21.0689 29.6638 21.1989C29.2568 21.4857 29.0014 21.9515 29 22.469C29.0001 22.5099 29.002 22.5508 29.0054 22.5917C28.6795 22.5315 28.3434 22.5 28 22.5C24.9624 22.5 22.5 24.9624 22.5 28C22.5 31.0376 24.9624 33.5 28 33.5C31.0376 33.5 33.5 31.0376 33.5 28C33.5 27.9003 33.4973 27.8012 33.4921 27.7028C33.7604 27.9202 34.0998 28.0479 34.46 28.049C34.645 28.0513 34.8281 28.0181 34.9998 27.9519L35 28C35 29.6628 34.4202 31.1902 33.4518 32.3911L38.7803 37.7197C39.0732 38.0126 39.0732 38.4874 38.7803 38.7803C38.4874 39.0732 38.0126 39.0732 37.7197 38.7803L32.3911 33.4518C31.1902 34.4202 29.6628 35 28 35C24.134 35 21 31.866 21 28C21 24.134 24.134 21 28 21Z" fill="white"/>
</svg>
