<svg width="20" height="16" viewBox="0 0 20 16" fill="none" xmlns="http://www.w3.org/2000/svg">
<path d="M4.28829 0.293273L0.292522 4.29327L0.209382 4.38752C-0.095438 4.77997 -0.0674078 5.34719 0.293272 5.70748L0.387522 5.79062C0.779972 6.0954 1.34719 6.0674 1.70748 5.70673L4.001 3.41L4.00101 15.0007L4.00774 15.1173C4.0655 15.6146 4.48817 16.0007 5.00101 16.0007L5.11763 15.9939C5.61497 15.9362 6.00101 15.5135 6.00101 15.0007L6.001 3.417L8.2944 5.70757L8.3886 5.7907C8.7811 6.0955 9.3483 6.0674 9.7086 5.70664C10.0988 5.31586 10.0984 4.6827 9.7077 4.29243L5.70242 0.292433L5.60816 0.209313C5.21571 -0.095437 4.64855 -0.067377 4.28829 0.293273ZM15 0.00317291L14.8834 0.00990299C14.386 0.067673 14 0.490343 14 1.00317V12.583L11.7068 10.2925L11.6125 10.2094C11.2201 9.9045 10.6529 9.9325 10.2926 10.2932C9.9022 10.6839 9.9025 11.3171 10.2932 11.7074L14.297 15.7074L14.3912 15.7905C14.7837 16.0954 15.3509 16.0674 15.7112 15.7067L19.7074 11.7067L19.7906 11.6125C20.0954 11.22 20.0674 10.6528 19.7068 10.2925L19.6125 10.2094C19.2201 9.9045 18.6529 9.9325 18.2926 10.2932L16 12.587V1.00317L15.9933 0.886553C15.9355 0.389213 15.5128 0.00317291 15 0.00317291Z" fill="#212121"/>
</svg>
