<svg width="20" height="20" viewBox="0 0 20 20" fill="none" xmlns="http://www.w3.org/2000/svg">
<path d="M11.0415 15.15H16.1748H17.4998C17.847 15.1885 18.1663 15.3585 18.3921 15.6251C18.6178 15.8917 18.7329 16.2346 18.7137 16.5835C18.6945 16.9323 18.5425 17.2605 18.2888 17.5007C18.0352 17.7409 17.6992 17.8748 17.3498 17.875H11.0415" stroke="#1C274C" stroke-width="2" stroke-linecap="round" stroke-linejoin="round"/>
<path d="M8.95824 7.27499H3.82491H2.49991C2.15493 7.31245 1.83711 7.47974 1.61094 7.74291C1.38476 8.00609 1.26717 8.34544 1.28201 8.69213C1.29686 9.03883 1.44302 9.36689 1.69086 9.60977C1.9387 9.85265 2.26966 9.99216 2.61658 9.99999H8.95824" stroke="#1C274C" stroke-width="2" stroke-linecap="round" stroke-linejoin="round"/>
<path d="M11.0415 15.1667C10.679 15.1667 10.3314 15.0227 10.0751 14.7664C9.81879 14.5101 9.6748 14.1625 9.6748 13.8C9.6748 13.4375 9.81879 13.0899 10.0751 12.8336C10.3314 12.5773 10.679 12.4333 11.0415 12.4333H15.4831" stroke="#1C274C" stroke-width="2" stroke-linecap="round" stroke-linejoin="round"/>
<path d="M8.95827 7.29167C9.13774 7.29167 9.31546 7.25632 9.48127 7.18764C9.64708 7.11895 9.79774 7.01829 9.92465 6.89138C10.0516 6.76447 10.1522 6.61381 10.2209 6.448C10.2896 6.28219 10.3249 6.10447 10.3249 5.925C10.3249 5.74553 10.2896 5.56781 10.2209 5.402C10.1522 5.23619 10.0516 5.08553 9.92465 4.95862C9.79774 4.83172 9.64708 4.73105 9.48127 4.66237C9.31546 4.59368 9.13774 4.55833 8.95827 4.55833H4.5166" stroke="#1C274C" stroke-width="2" stroke-linecap="round" stroke-linejoin="round"/>
<path d="M11.0414 17.8833H10.4498C9.43464 17.8367 8.47654 17.4006 7.77467 16.6657C7.0728 15.9308 6.68115 14.9537 6.68115 13.9375C6.68115 12.9213 7.0728 11.9442 7.77467 11.2093C8.47654 10.4744 9.43464 10.0383 10.4498 9.99167H16.1748C16.7222 9.99368 17.2548 10.1695 17.6958 10.4939C18.1369 10.8182 18.4634 11.2743 18.6285 11.7962C18.7935 12.3182 18.7884 12.8791 18.614 13.398C18.4396 13.9169 18.1049 14.367 17.6581 14.6833C17.2226 14.9861 16.7052 15.1489 16.1748 15.15" stroke="#1C274C" stroke-width="2" stroke-linecap="round" stroke-linejoin="round"/>
<path d="M8.95827 10H9.54993C10.5651 9.95334 11.5232 9.51724 12.225 8.78236C12.9269 8.04748 13.3186 7.07038 13.3186 6.05417C13.3186 5.03797 12.9269 4.06086 12.225 3.32598C11.5232 2.5911 10.5651 2.155 9.54993 2.10834H3.82494C3.27526 2.10784 2.73975 2.28268 2.29627 2.60745C1.8528 2.93222 1.52447 3.38998 1.35904 3.91417C1.1936 4.43836 1.19968 5.00165 1.37639 5.52215C1.5531 6.04265 1.89122 6.49322 2.3416 6.80834C2.7771 7.11109 3.29454 7.27388 3.82494 7.275" stroke="#1C274C" stroke-width="2" stroke-linecap="round" stroke-linejoin="round"/>
<path d="M10.4498 17.8833H5.19147C4.17634 17.8367 3.21824 17.4006 2.51637 16.6657C1.8145 15.9308 1.42285 14.9537 1.42285 13.9375C1.42285 12.9213 1.8145 11.9442 2.51637 11.2093C3.21824 10.4744 4.17634 10.0383 5.19147 9.99167H10.4498" stroke="#1C274C" stroke-width="2" stroke-linecap="round" stroke-linejoin="round"/>
<path d="M9.5498 10H14.8081C15.8233 9.95334 16.7814 9.51724 17.4832 8.78236C18.1851 8.04748 18.5768 7.07037 18.5768 6.05417C18.5768 5.03797 18.1851 4.06086 17.4832 3.32598C16.7814 2.5911 15.8233 2.155 14.8081 2.10834H9.5498" stroke="#1C274C" stroke-width="2" stroke-linecap="round" stroke-linejoin="round"/>
</svg>
