<svg width="24" height="25" viewBox="0 0 24 25" fill="none" xmlns="http://www.w3.org/2000/svg">
<rect y="0.5" width="24" height="24" rx="12" fill="#FDE6F4"/>
<g clip-path="url(#clip0_386_2898)">
<path d="M16.2167 13.9124C17.1269 13.9124 17.8648 14.6234 17.8648 15.5005V16.149C17.8648 16.5539 17.7334 16.9486 17.4891 17.278C16.3562 18.8056 14.5063 19.5623 11.9998 19.5623C9.49276 19.5623 7.64382 18.8053 6.51366 17.2769C6.27039 16.9479 6.13965 16.554 6.13965 16.15V15.5005C6.13965 14.6234 6.87751 13.9124 7.78772 13.9124H16.2167ZM11.9998 5.44205C14.0235 5.44205 15.664 7.0228 15.664 8.97275C15.664 10.9227 14.0235 12.5035 11.9998 12.5035C9.9761 12.5035 8.33558 10.9227 8.33558 8.97275C8.33558 7.0228 9.9761 5.44205 11.9998 5.44205Z" fill="#212121"/>
</g>
<defs>
<clipPath id="clip0_386_2898">
<rect width="13" height="14" fill="white" transform="translate(5.5 5.5)"/>
</clipPath>
</defs>
</svg>
