<svg width="18" height="18" viewBox="0 0 18 18" fill="none" xmlns="http://www.w3.org/2000/svg">
<path d="M13.3159 10.5002C14.2474 10.5002 15.0025 11.2552 15.0025 12.1868V12.8756C15.0025 13.3057 14.8681 13.7249 14.6181 14.0748C13.4587 15.6972 11.5654 16.501 9.0003 16.501C6.43455 16.501 4.54232 15.6969 3.3857 14.0736C3.13673 13.7242 3.00293 13.3058 3.00293 12.8768V12.1868C3.00293 11.2552 3.75807 10.5002 4.68958 10.5002H13.3159ZM9.0003 1.50366C11.0713 1.50366 12.7503 3.1826 12.7503 5.25366C12.7503 7.32473 11.0713 9.00368 9.0003 9.00368C6.9292 9.00368 5.25027 7.32473 5.25027 5.25366C5.25027 3.1826 6.9292 1.50366 9.0003 1.50366Z" fill="#212121"/>
</svg>
