<svg width="20" height="20" viewBox="0 0 20 20" fill="none" xmlns="http://www.w3.org/2000/svg">
<path fill-rule="evenodd" clip-rule="evenodd" d="M10 20C15.5228 20 20 15.5228 20 10C20 4.47715 15.5228 0 10 0C4.47715 0 0 4.47715 0 10C0 15.5228 4.47715 20 10 20ZM10.75 4C10.75 3.58579 10.4142 3.25 10 3.25C9.5858 3.25 9.25 3.58579 9.25 4V4.31673C7.61957 4.60867 6.25 5.83361 6.25 7.5C6.25 9.4172 8.0628 10.75 10 10.75C11.3765 10.75 12.25 11.6557 12.25 12.5C12.25 13.3443 11.3765 14.25 10 14.25C8.6235 14.25 7.75 13.3443 7.75 12.5C7.75 12.0858 7.41421 11.75 7 11.75C6.58579 11.75 6.25 12.0858 6.25 12.5C6.25 14.1664 7.61957 15.3913 9.25 15.6833V16C9.25 16.4142 9.5858 16.75 10 16.75C10.4142 16.75 10.75 16.4142 10.75 16V15.6833C12.3804 15.3913 13.75 14.1664 13.75 12.5C13.75 10.5828 11.9372 9.25 10 9.25C8.6235 9.25 7.75 8.3443 7.75 7.5C7.75 6.65573 8.6235 5.75 10 5.75C11.3765 5.75 12.25 6.65573 12.25 7.5C12.25 7.91421 12.5858 8.25 13 8.25C13.4142 8.25 13.75 7.91421 13.75 7.5C13.75 5.83361 12.3804 4.60867 10.75 4.31673V4Z" fill="#1C274C"/>
</svg>
